# xmcd CD database file
#
# Track frame offsets:
#	150
#	21408
#	41363
#
# Disc length: 818 seconds
#
# Revision: 0
# Processed by: cddbd v1.5.2PL0 Copyright (c) Steve Scherf et al.
# Submitted via: CDex 1.51
#
DISCID=1c033003
DTITLE=The Jeff Healey band - Angel Eyes
DYEAR=1989
DGENRE=Blues
TTITLE0=Angel Eyes - Long Version
TTITLE1=Angel Eyes - Single
TTITLE2=Hideaway - Album Version
EXTD=YEAR: 1989
EXTT0=
EXTT1=
EXTT2=
PLAYORDER=
